<svg xmlns="http://www.w3.org/2000/svg" xmlns:xlink="http://www.w3.org/1999/xlink" contentStyleType="text/css" data-diagram-type="SEQUENCE" height="749px" preserveAspectRatio="none" style="width:1264px;height:749px;background:#FFFFFF;" version="1.1" viewBox="0 0 1264 749" width="1264px" zoomAndPan="magnify"><defs/><g><rect fill="none" height="407.5313" style="stroke:#000000;stroke-width:1.5;" width="1247.5718" x="10" y="243.9609"/><g><title>User</title><rect fill="#000000" fill-opacity="0.00000" height="587.1953" width="8" x="34.9551" y="81.2969"/><line style="stroke:#181818;stroke-width:0.5;stroke-dasharray:5,5;" x1="38" x2="38" y1="81.2969" y2="668.4922"/></g><g><title>Movie Service</title><rect fill="#000000" fill-opacity="0.00000" height="587.1953" width="8" x="250.1147" y="81.2969"/><line style="stroke:#181818;stroke-width:0.5;stroke-dasharray:5,5;" x1="253.3027" x2="253.3027" y1="81.2969" y2="668.4922"/></g><g><title>Authen Service</title><rect fill="#000000" fill-opacity="0.00000" height="587.1953" width="8" x="488.9614" y="81.2969"/><line style="stroke:#181818;stroke-width:0.5;stroke-dasharray:5,5;" x1="492.7163" x2="492.7163" y1="81.2969" y2="668.4922"/></g><g><title>OPA Service</title><rect fill="#000000" fill-opacity="0.00000" height="587.1953" width="8" x="608.8218" y="81.2969"/><line style="stroke:#181818;stroke-width:0.5;stroke-dasharray:5,5;" x1="612.2065" x2="612.2065" y1="81.2969" y2="668.4922"/></g><g><title>Database</title><rect fill="#000000" fill-opacity="0.00000" height="587.1953" width="8" x="708.8374" y="81.2969"/><line style="stroke:#181818;stroke-width:0.5;stroke-dasharray:5,5;" x1="712.437" x2="712.437" y1="81.2969" y2="668.4922"/></g><g><title>Storage</title><rect fill="#000000" fill-opacity="0.00000" height="587.1953" width="8" x="793.626" y="81.2969"/><line style="stroke:#181818;stroke-width:0.5;stroke-dasharray:5,5;" x1="797.2378" x2="797.2378" y1="81.2969" y2="668.4922"/></g><g><title>Transcode Service</title><rect fill="#000000" fill-opacity="0.00000" height="587.1953" width="8" x="1056.1011" y="81.2969"/><line style="stroke:#181818;stroke-width:0.5;stroke-dasharray:5,5;" x1="1059.5972" x2="1059.5972" y1="81.2969" y2="668.4922"/></g><g class="participant participant-head" data-participant="User"><text fill="#000000" font-family="sans-serif" font-size="14" lengthAdjust="spacing" textLength="31.9102" x="20" y="77.9951">User</text><ellipse cx="38.9551" cy="13.5" fill="#E2E2F0" rx="8" ry="8" style="stroke:#181818;stroke-width:0.5;"/><path d="M38.9551,21.5 L38.9551,48.5 M25.9551,29.5 L51.9551,29.5 M38.9551,48.5 L25.9551,63.5 M38.9551,48.5 L51.9551,63.5" fill="none" style="stroke:#181818;stroke-width:0.5;"/></g><g class="participant participant-tail" data-participant="User"><text fill="#000000" font-family="sans-serif" font-size="14" lengthAdjust="spacing" textLength="31.9102" x="20" y="680.4873">User</text><ellipse cx="38.9551" cy="692.2891" fill="#E2E2F0" rx="8" ry="8" style="stroke:#181818;stroke-width:0.5;"/><path d="M38.9551,700.2891 L38.9551,727.2891 M25.9551,708.2891 L51.9551,708.2891 M38.9551,727.2891 L25.9551,742.2891 M38.9551,727.2891 L51.9551,742.2891" fill="none" style="stroke:#181818;stroke-width:0.5;"/></g><g class="participant participant-head" data-participant="MS"><rect fill="#E2E2F0" height="30.2969" rx="2.5" ry="2.5" style="stroke:#181818;stroke-width:0.5;" width="111.624" x="198.3027" y="50"/><text fill="#000000" font-family="sans-serif" font-size="14" lengthAdjust="spacing" textLength="97.624" x="205.3027" y="69.9951">Movie Service</text></g><g class="participant participant-tail" data-participant="MS"><rect fill="#E2E2F0" height="30.2969" rx="2.5" ry="2.5" style="stroke:#181818;stroke-width:0.5;" width="111.624" x="198.3027" y="667.4922"/><text fill="#000000" font-family="sans-serif" font-size="14" lengthAdjust="spacing" textLength="97.624" x="205.3027" y="687.4873">Movie Service</text></g><g class="participant participant-head" data-participant="Authen"><rect fill="#E2E2F0" height="30.2969" rx="2.5" ry="2.5" style="stroke:#181818;stroke-width:0.5;" width="120.4902" x="432.7163" y="50"/><text fill="#000000" font-family="sans-serif" font-size="14" lengthAdjust="spacing" textLength="106.4902" x="439.7163" y="69.9951">Authen Service</text></g><g class="participant participant-tail" data-participant="Authen"><rect fill="#E2E2F0" height="30.2969" rx="2.5" ry="2.5" style="stroke:#181818;stroke-width:0.5;" width="120.4902" x="432.7163" y="667.4922"/><text fill="#000000" font-family="sans-serif" font-size="14" lengthAdjust="spacing" textLength="106.4902" x="439.7163" y="687.4873">Authen Service</text></g><g class="participant participant-head" data-participant="OPA"><rect fill="#E2E2F0" height="30.2969" rx="2.5" ry="2.5" style="stroke:#181818;stroke-width:0.5;" width="99.2305" x="563.2065" y="50"/><text fill="#000000" font-family="sans-serif" font-size="14" lengthAdjust="spacing" textLength="85.2305" x="570.2065" y="69.9951">OPA Service</text></g><g class="participant participant-tail" data-participant="OPA"><rect fill="#E2E2F0" height="30.2969" rx="2.5" ry="2.5" style="stroke:#181818;stroke-width:0.5;" width="99.2305" x="563.2065" y="667.4922"/><text fill="#000000" font-family="sans-serif" font-size="14" lengthAdjust="spacing" textLength="85.2305" x="570.2065" y="687.4873">OPA Service</text></g><g class="participant participant-head" data-participant="DB"><rect fill="#E2E2F0" height="30.2969" rx="2.5" ry="2.5" style="stroke:#181818;stroke-width:0.5;" width="80.8008" x="672.437" y="50"/><text fill="#000000" font-family="sans-serif" font-size="14" lengthAdjust="spacing" textLength="66.8008" x="679.437" y="69.9951">Database</text></g><g class="participant participant-tail" data-participant="DB"><rect fill="#E2E2F0" height="30.2969" rx="2.5" ry="2.5" style="stroke:#181818;stroke-width:0.5;" width="80.8008" x="672.437" y="667.4922"/><text fill="#000000" font-family="sans-serif" font-size="14" lengthAdjust="spacing" textLength="66.8008" x="679.437" y="687.4873">Database</text></g><g class="participant participant-head" data-participant="Storage"><rect fill="#E2E2F0" height="30.2969" rx="2.5" ry="2.5" style="stroke:#181818;stroke-width:0.5;" width="68.7764" x="763.2378" y="50"/><text fill="#000000" font-family="sans-serif" font-size="14" lengthAdjust="spacing" textLength="54.7764" x="770.2378" y="69.9951">Storage</text></g><g class="participant participant-tail" data-participant="Storage"><rect fill="#E2E2F0" height="30.2969" rx="2.5" ry="2.5" style="stroke:#181818;stroke-width:0.5;" width="68.7764" x="763.2378" y="667.4922"/><text fill="#000000" font-family="sans-serif" font-size="14" lengthAdjust="spacing" textLength="54.7764" x="770.2378" y="687.4873">Storage</text></g><g class="participant participant-head" data-participant="TS"><rect fill="#E2E2F0" height="30.2969" rx="2.5" ry="2.5" style="stroke:#181818;stroke-width:0.5;" width="143.0078" x="988.5972" y="50"/><text fill="#000000" font-family="sans-serif" font-size="14" lengthAdjust="spacing" textLength="129.0078" x="995.5972" y="69.9951">Transcode Service</text></g><g class="participant participant-tail" data-participant="TS"><rect fill="#E2E2F0" height="30.2969" rx="2.5" ry="2.5" style="stroke:#181818;stroke-width:0.5;" width="143.0078" x="988.5972" y="667.4922"/><text fill="#000000" font-family="sans-serif" font-size="14" lengthAdjust="spacing" textLength="129.0078" x="995.5972" y="687.4873">Transcode Service</text></g><g class="message" data-participant-1="User" data-participant-2="MS"><polygon fill="#181818" points="242.1147,108.4297,252.1147,112.4297,242.1147,116.4297,246.1147,112.4297" style="stroke:#181818;stroke-width:1;"/><line style="stroke:#181818;stroke-width:1;" x1="38.9551" x2="248.1147" y1="112.4297" y2="112.4297"/><text fill="#000000" font-family="sans-serif" font-size="13" lengthAdjust="spacing" textLength="191.1597" x="45.9551" y="107.3638">1. Send upload video request</text></g><g class="message" data-participant-1="MS" data-participant-2="Authen"><polygon fill="#181818" points="480.9614,137.5625,490.9614,141.5625,480.9614,145.5625,484.9614,141.5625" style="stroke:#181818;stroke-width:1;"/><line style="stroke:#181818;stroke-width:1;" x1="254.1147" x2="486.9614" y1="141.5625" y2="141.5625"/><text fill="#000000" font-family="sans-serif" font-size="13" lengthAdjust="spacing" textLength="132.647" x="261.1147" y="136.4966">2. Authenticate user</text></g><g class="message" data-participant-1="Authen" data-participant-2="MS"><polygon fill="#181818" points="265.1147,166.6953,255.1147,170.6953,265.1147,174.6953,261.1147,170.6953" style="stroke:#181818;stroke-width:1;"/><line style="stroke:#181818;stroke-width:1;stroke-dasharray:2,2;" x1="259.1147" x2="491.9614" y1="170.6953" y2="170.6953"/><text fill="#000000" font-family="sans-serif" font-size="13" lengthAdjust="spacing" textLength="104.9521" x="271.1147" y="165.6294">Return user info</text></g><g class="message" data-participant-1="MS" data-participant-2="OPA"><polygon fill="#181818" points="600.8218,195.8281,610.8218,199.8281,600.8218,203.8281,604.8218,199.8281" style="stroke:#181818;stroke-width:1;"/><line style="stroke:#181818;stroke-width:1;" x1="254.1147" x2="606.8218" y1="199.8281" y2="199.8281"/><text fill="#000000" font-family="sans-serif" font-size="13" lengthAdjust="spacing" textLength="179.2896" x="261.1147" y="194.7622">3. Check user authorization</text></g><g class="message" data-participant-1="OPA" data-participant-2="MS"><polygon fill="#181818" points="265.1147,224.9609,255.1147,228.9609,265.1147,232.9609,261.1147,228.9609" style="stroke:#181818;stroke-width:1;"/><line style="stroke:#181818;stroke-width:1;stroke-dasharray:2,2;" x1="259.1147" x2="611.8218" y1="228.9609" y2="228.9609"/><text fill="#000000" font-family="sans-serif" font-size="13" lengthAdjust="spacing" textLength="81.2881" x="271.1147" y="223.895">Allow / Deny</text></g><path d="M10,243.9609 L74.4429,243.9609 L74.4429,251.0938 L64.4429,261.0938 L10,261.0938 L10,243.9609" fill="#EEEEEE" style="stroke:#000000;stroke-width:1.5;"/><rect fill="none" height="407.5313" style="stroke:#000000;stroke-width:1.5;" width="1247.5718" x="10" y="243.9609"/><text fill="#000000" font-family="sans-serif" font-size="13" font-weight="bold" lengthAdjust="spacing" textLength="19.4429" x="25" y="257.0278">alt</text><text fill="#000000" font-family="sans-serif" font-size="11" font-weight="bold" lengthAdjust="spacing" textLength="146.3301" x="89.4429" y="256.1714">[Authorization allowed]</text><g class="message" data-participant-1="MS" data-participant-2="DB"><polygon fill="#181818" points="700.8374,278.2266,710.8374,282.2266,700.8374,286.2266,704.8374,282.2266" style="stroke:#181818;stroke-width:1;"/><line style="stroke:#181818;stroke-width:1;" x1="254.1147" x2="706.8374" y1="282.2266" y2="282.2266"/><text fill="#000000" font-family="sans-serif" font-size="13" lengthAdjust="spacing" textLength="295.7881" x="261.1147" y="277.1606">4. Save metadata and set status = uploading</text></g><g class="message" data-participant-1="DB" data-participant-2="MS"><polygon fill="#181818" points="265.1147,307.3594,255.1147,311.3594,265.1147,315.3594,261.1147,311.3594" style="stroke:#181818;stroke-width:1;"/><line style="stroke:#181818;stroke-width:1;stroke-dasharray:2,2;" x1="259.1147" x2="711.8374" y1="311.3594" y2="311.3594"/><text fill="#000000" font-family="sans-serif" font-size="13" lengthAdjust="spacing" textLength="18.7573" x="271.1147" y="306.2935">OK</text></g><g class="message" data-participant-1="MS" data-participant-2="MS"><line style="stroke:#181818;stroke-width:1;" x1="254.1147" x2="296.1147" y1="340.4922" y2="340.4922"/><line style="stroke:#181818;stroke-width:1;" x1="296.1147" x2="296.1147" y1="340.4922" y2="353.4922"/><line style="stroke:#181818;stroke-width:1;" x1="255.1147" x2="296.1147" y1="353.4922" y2="353.4922"/><polygon fill="#181818" points="265.1147,349.4922,255.1147,353.4922,265.1147,357.4922,261.1147,353.4922" style="stroke:#181818;stroke-width:1;"/><text fill="#000000" font-family="sans-serif" font-size="13" lengthAdjust="spacing" textLength="224.8467" x="261.1147" y="335.4263">5. Generate signed URL for upload</text></g><g class="message" data-participant-1="MS" data-participant-2="User"><polygon fill="#181818" points="49.9551,378.625,39.9551,382.625,49.9551,386.625,45.9551,382.625" style="stroke:#181818;stroke-width:1;"/><line style="stroke:#181818;stroke-width:1;" x1="43.9551" x2="253.1147" y1="382.625" y2="382.625"/><text fill="#000000" font-family="sans-serif" font-size="13" lengthAdjust="spacing" textLength="137.668" x="55.9551" y="377.5591">6. Return signed URL</text></g><g class="message" data-participant-1="User" data-participant-2="Storage"><polygon fill="#181818" points="785.626,407.7578,795.626,411.7578,785.626,415.7578,789.626,411.7578" style="stroke:#181818;stroke-width:1;"/><line style="stroke:#181818;stroke-width:1;" x1="38.9551" x2="791.626" y1="411.7578" y2="411.7578"/><text fill="#000000" font-family="sans-serif" font-size="13" lengthAdjust="spacing" textLength="230.5215" x="45.9551" y="406.6919">7. Upload raw file using signed URL</text></g><g class="message" data-participant-1="TS" data-participant-2="Storage"><polygon fill="#181818" points="808.626,436.8906,798.626,440.8906,808.626,444.8906,804.626,440.8906" style="stroke:#181818;stroke-width:1;"/><line style="stroke:#181818;stroke-width:1;" x1="802.626" x2="1059.1011" y1="440.8906" y2="440.8906"/><text fill="#000000" font-family="sans-serif" font-size="13" lengthAdjust="spacing" textLength="238.4751" x="814.626" y="435.8247">8. Detect new raw file and download</text></g><g class="message" data-participant-1="TS" data-participant-2="TS"><line style="stroke:#181818;stroke-width:1;" x1="1060.1011" x2="1102.1011" y1="470.0234" y2="470.0234"/><line style="stroke:#181818;stroke-width:1;" x1="1102.1011" x2="1102.1011" y1="470.0234" y2="483.0234"/><line style="stroke:#181818;stroke-width:1;" x1="1061.1011" x2="1102.1011" y1="483.0234" y2="483.0234"/><polygon fill="#181818" points="1071.1011,479.0234,1061.1011,483.0234,1071.1011,487.0234,1067.1011,483.0234" style="stroke:#181818;stroke-width:1;"/><text fill="#000000" font-family="sans-serif" font-size="13" lengthAdjust="spacing" textLength="178.4707" x="1067.1011" y="464.9575">9. Transcode to HLS format</text></g><g class="message" data-participant-1="TS" data-participant-2="Storage"><polygon fill="#181818" points="808.626,508.1563,798.626,512.1563,808.626,516.1563,804.626,512.1563" style="stroke:#181818;stroke-width:1;"/><line style="stroke:#181818;stroke-width:1;" x1="802.626" x2="1059.1011" y1="512.1563" y2="512.1563"/><text fill="#000000" font-family="sans-serif" font-size="13" lengthAdjust="spacing" textLength="130.4634" x="814.626" y="507.0903">10. Upload HLS files</text></g><g class="message" data-participant-1="TS" data-participant-2="MS"><polygon fill="#181818" points="265.1147,537.2891,255.1147,541.2891,265.1147,545.2891,261.1147,541.2891" style="stroke:#181818;stroke-width:1;"/><line style="stroke:#181818;stroke-width:1;" x1="259.1147" x2="1059.1011" y1="541.2891" y2="541.2891"/><text fill="#000000" font-family="sans-serif" font-size="13" lengthAdjust="spacing" textLength="203.8804" x="271.1147" y="536.2231">11. Update status and HLS URL</text></g><g class="message" data-participant-1="MS" data-participant-2="DB"><polygon fill="#181818" points="700.8374,566.4219,710.8374,570.4219,700.8374,574.4219,704.8374,570.4219" style="stroke:#181818;stroke-width:1;"/><line style="stroke:#181818;stroke-width:1;" x1="254.1147" x2="706.8374" y1="570.4219" y2="570.4219"/><text fill="#000000" font-family="sans-serif" font-size="13" lengthAdjust="spacing" textLength="234.7046" x="261.1147" y="565.356">12. Update metadata status = done</text></g><g class="message" data-participant-1="DB" data-participant-2="MS"><polygon fill="#181818" points="265.1147,595.5547,255.1147,599.5547,265.1147,603.5547,261.1147,599.5547" style="stroke:#181818;stroke-width:1;"/><line style="stroke:#181818;stroke-width:1;stroke-dasharray:2,2;" x1="259.1147" x2="711.8374" y1="599.5547" y2="599.5547"/><text fill="#000000" font-family="sans-serif" font-size="13" lengthAdjust="spacing" textLength="18.7573" x="271.1147" y="594.4888">OK</text></g><line style="stroke:#000000;stroke-width:1;stroke-dasharray:2,2;" x1="10" x2="1257.5718" y1="608.5547" y2="608.5547"/><text fill="#000000" font-family="sans-serif" font-size="11" font-weight="bold" lengthAdjust="spacing" textLength="140.583" x="15" y="618.7651">[Authorization denied]</text><g class="message" data-participant-1="MS" data-participant-2="User"><polygon fill="#181818" points="49.9551,639.4922,39.9551,643.4922,49.9551,647.4922,45.9551,643.4922" style="stroke:#181818;stroke-width:1;"/><line style="stroke:#181818;stroke-width:1;" x1="43.9551" x2="253.1147" y1="643.4922" y2="643.4922"/><text fill="#000000" font-family="sans-serif" font-size="13" lengthAdjust="spacing" textLength="158.9453" x="55.9551" y="638.4263">4. Return 403 Forbidden</text></g><!--SRC=[RL9TJnin47pthrZnpfL0-a6aLWgDQAM2gBZa1opdJR1wsC7UIzJ- -gxFZeE1U_9vPtPdPeqTEm-hG5vjqRFfp1Ojmycjsnc2blpET7G26E2shH7pWH_9Lf1qLSFkViyhZFpNW0KoFc18rSLLNMn57MvIBPzhmDAZ3PtJjTPbgrJq1AVVH3VCOD98tMeOjhr33JkZoO6dvu42Aq48BlkPmNcJpp85cM28uUJgwQ7XFV7WxLW3OzTEvIxHxWmk6lZ-IDsVL4VXEc_-8HjdLKIKDlE-Ttlu00koVvN2diVH1GmOwwHpyyMLKAPY1NS4JyIe9Jj0yHM88J3o4E1hDcdiHWcXZBhxfHJ8brgDLnyR-46MV7GPpCQIXjNz3QpbHQGUBmXZd3Fur1oi7mcfxo7ll2R1VcvWbVBsk8UrwMEM8kiDTTdMn2-D1CBKCLZQ7ydHg7PxMvGbtZ9QkMpW-1JOmS-RDlfuGdvtmkIiQ1kHqZwyr98UpII2z9XEoZOgYFYe_1ZDk9R9UG6NpPIDQ6Tf9BnU2FM1NgrSapLbupdrQKbzUdO1ryu_62qu9K_wFm00]--></g></svg>