<svg xmlns="http://www.w3.org/2000/svg" xmlns:xlink="http://www.w3.org/1999/xlink" contentStyleType="text/css" data-diagram-type="DESCRIPTION" height="457px" preserveAspectRatio="none" style="width:997px;height:457px;background:#FFFFFF;" version="1.1" viewBox="0 0 997 457" width="997px" zoomAndPan="magnify"><defs/><g><!--cluster User--><g class="cluster" data-entity="User" data-source-line="1" data-uid="ent0002" id="cluster_User"><path d="M844.5,169.3 L881.6006,169.3 A3.75,3.75 0 0 1 884.1006,171.8 L891.1006,191.5969 L987.5,191.5969 A2.5,2.5 0 0 1 990,194.0969 L990,283.09 A2.5,2.5 0 0 1 987.5,285.59 L844.5,285.59 A2.5,2.5 0 0 1 842,283.09 L842,171.8 A2.5,2.5 0 0 1 844.5,169.3" fill="none" style="stroke:#000000;stroke-width:1.5;"/><line style="stroke:#000000;stroke-width:1.5;" x1="842" x2="891.1006" y1="191.5969" y2="191.5969"/><text fill="#000000" font-family="sans-serif" font-size="14" font-weight="bold" lengthAdjust="spacing" textLength="36.1006" x="846" y="184.2951">User</text></g><!--cluster Services--><g class="cluster" data-entity="Services" data-source-line="5" data-uid="ent0004" id="cluster_Services"><path d="M8.5,6 L76.0342,6 A3.75,3.75 0 0 1 78.5342,8.5 L85.5342,28.2969 L342.5,28.2969 A2.5,2.5 0 0 1 345,30.7969 L345,448.39 A2.5,2.5 0 0 1 342.5,450.89 L8.5,450.89 A2.5,2.5 0 0 1 6,448.39 L6,8.5 A2.5,2.5 0 0 1 8.5,6" fill="none" style="stroke:#000000;stroke-width:1.5;"/><line style="stroke:#000000;stroke-width:1.5;" x1="6" x2="85.5342" y1="28.2969" y2="28.2969"/><text fill="#000000" font-family="sans-serif" font-size="14" font-weight="bold" lengthAdjust="spacing" textLength="66.5342" x="10" y="20.9951">Services</text></g><!--cluster Storage Layer--><g class="cluster" data-entity="Storage Layer" data-source-line="12" data-uid="ent0009" id="cluster_Storage Layer"><path d="M484.5,334.59 L596.5293,334.59 A3.75,3.75 0 0 1 599.0293,337.09 L606.0293,356.8869 L747.5,356.8869 A2.5,2.5 0 0 1 750,359.3869 L750,448.39 A2.5,2.5 0 0 1 747.5,450.89 L484.5,450.89 A2.5,2.5 0 0 1 482,448.39 L482,337.09 A2.5,2.5 0 0 1 484.5,334.59" fill="none" style="stroke:#000000;stroke-width:1.5;"/><line style="stroke:#000000;stroke-width:1.5;" x1="482" x2="606.0293" y1="356.8869" y2="356.8869"/><text fill="#000000" font-family="sans-serif" font-size="14" font-weight="bold" lengthAdjust="spacing" textLength="111.0293" x="486" y="349.5851">Storage Layer</text></g><!--entity User Client--><g class="entity" data-entity="User Client" data-source-line="2" data-uid="ent0003" id="entity_User Client"><rect fill="#F1F1F1" height="46.2969" rx="2.5" ry="2.5" style="stroke:#181818;stroke-width:0.5;" width="116.8906" x="857.55" y="223.3"/><rect fill="#F1F1F1" height="10" style="stroke:#181818;stroke-width:0.5;" width="15" x="954.4406" y="228.3"/><rect fill="#F1F1F1" height="2" style="stroke:#181818;stroke-width:0.5;" width="4" x="952.4406" y="230.3"/><rect fill="#F1F1F1" height="2" style="stroke:#181818;stroke-width:0.5;" width="4" x="952.4406" y="234.3"/><text fill="#000000" font-family="sans-serif" font-size="14" lengthAdjust="spacing" textLength="76.8906" x="872.55" y="256.2951">User Client</text></g><!--entity Movie Service--><g class="entity" data-entity="Movie Service" data-source-line="6" data-uid="ent0005" id="entity_Movie Service"><rect fill="#F1F1F1" height="46.2969" rx="2.5" ry="2.5" style="stroke:#181818;stroke-width:0.5;" width="137.624" x="191.19" y="223.3"/><rect fill="#F1F1F1" height="10" style="stroke:#181818;stroke-width:0.5;" width="15" x="308.814" y="228.3"/><rect fill="#F1F1F1" height="2" style="stroke:#181818;stroke-width:0.5;" width="4" x="306.814" y="230.3"/><rect fill="#F1F1F1" height="2" style="stroke:#181818;stroke-width:0.5;" width="4" x="306.814" y="234.3"/><text fill="#000000" font-family="sans-serif" font-size="14" lengthAdjust="spacing" textLength="97.624" x="206.19" y="256.2951">Movie Service</text></g><!--entity Authen Service--><g class="entity" data-entity="Authen Service" data-source-line="7" data-uid="ent0006" id="entity_Authen Service"><rect fill="#F1F1F1" height="46.2969" rx="2.5" ry="2.5" style="stroke:#181818;stroke-width:0.5;" width="146.4902" x="21.75" y="388.59"/><rect fill="#F1F1F1" height="10" style="stroke:#181818;stroke-width:0.5;" width="15" x="148.2402" y="393.59"/><rect fill="#F1F1F1" height="2" style="stroke:#181818;stroke-width:0.5;" width="4" x="146.2402" y="395.59"/><rect fill="#F1F1F1" height="2" style="stroke:#181818;stroke-width:0.5;" width="4" x="146.2402" y="399.59"/><text fill="#000000" font-family="sans-serif" font-size="14" lengthAdjust="spacing" textLength="106.4902" x="36.75" y="421.5851">Authen Service</text></g><!--entity OPA Service--><g class="entity" data-entity="OPA Service" data-source-line="8" data-uid="ent0007" id="entity_OPA Service"><rect fill="#F1F1F1" height="46.2969" rx="2.5" ry="2.5" style="stroke:#181818;stroke-width:0.5;" width="125.2305" x="203.38" y="388.59"/><rect fill="#F1F1F1" height="10" style="stroke:#181818;stroke-width:0.5;" width="15" x="308.6105" y="393.59"/><rect fill="#F1F1F1" height="2" style="stroke:#181818;stroke-width:0.5;" width="4" x="306.6105" y="395.59"/><rect fill="#F1F1F1" height="2" style="stroke:#181818;stroke-width:0.5;" width="4" x="306.6105" y="399.59"/><text fill="#000000" font-family="sans-serif" font-size="14" lengthAdjust="spacing" textLength="85.2305" x="218.38" y="421.5851">OPA Service</text></g><!--entity Transcode Service--><g class="entity" data-entity="Transcode Service" data-source-line="9" data-uid="ent0008" id="entity_Transcode Service"><rect fill="#F1F1F1" height="46.2969" rx="2.5" ry="2.5" style="stroke:#181818;stroke-width:0.5;" width="169.0078" x="159.5" y="60"/><rect fill="#F1F1F1" height="10" style="stroke:#181818;stroke-width:0.5;" width="15" x="308.5078" y="65"/><rect fill="#F1F1F1" height="2" style="stroke:#181818;stroke-width:0.5;" width="4" x="306.5078" y="67"/><rect fill="#F1F1F1" height="2" style="stroke:#181818;stroke-width:0.5;" width="4" x="306.5078" y="71"/><text fill="#000000" font-family="sans-serif" font-size="14" lengthAdjust="spacing" textLength="129.0078" x="174.5" y="92.9951">Transcode Service</text></g><!--entity Database--><g class="entity" data-entity="Database" data-source-line="13" data-uid="ent0010" id="entity_Database"><rect fill="#F1F1F1" height="46.2969" rx="2.5" ry="2.5" style="stroke:#181818;stroke-width:0.5;" width="106.8008" x="497.6" y="388.59"/><rect fill="#F1F1F1" height="10" style="stroke:#181818;stroke-width:0.5;" width="15" x="584.4008" y="393.59"/><rect fill="#F1F1F1" height="2" style="stroke:#181818;stroke-width:0.5;" width="4" x="582.4008" y="395.59"/><rect fill="#F1F1F1" height="2" style="stroke:#181818;stroke-width:0.5;" width="4" x="582.4008" y="399.59"/><text fill="#000000" font-family="sans-serif" font-size="14" lengthAdjust="spacing" textLength="66.8008" x="512.6" y="421.5851">Database</text></g><!--entity Storage--><g class="entity" data-entity="Storage" data-source-line="14" data-uid="ent0011" id="entity_Storage"><rect fill="#F1F1F1" height="46.2969" rx="2.5" ry="2.5" style="stroke:#181818;stroke-width:0.5;" width="94.7764" x="639.61" y="388.59"/><rect fill="#F1F1F1" height="10" style="stroke:#181818;stroke-width:0.5;" width="15" x="714.3864" y="393.59"/><rect fill="#F1F1F1" height="2" style="stroke:#181818;stroke-width:0.5;" width="4" x="712.3864" y="395.59"/><rect fill="#F1F1F1" height="2" style="stroke:#181818;stroke-width:0.5;" width="4" x="712.3864" y="399.59"/><text fill="#000000" font-family="sans-serif" font-size="14" lengthAdjust="spacing" textLength="54.7764" x="654.61" y="421.5851">Storage</text></g><!--link User Client to Movie Service--><g class="link" data-entity-1="User Client" data-entity-2="Movie Service" data-source-line="17" data-uid="lnk12" id="link_User Client_Movie Service"><path d="M900.68,223.02 C885.7,202.44 860.83,173.89 831,161.3 C747.06,125.87 509.21,138.49 421,161.3 C373.55,173.56 329.5456,198.8818 298.2556,219.5618" fill="none" id="User Client-to-Movie Service" style="stroke:#181818;stroke-width:1;"/><polygon fill="#181818" points="293.25,222.87,302.9638,221.2447,297.4213,220.1131,298.5528,214.5706,293.25,222.87" style="stroke:#181818;stroke-width:1;"/><text fill="#000000" font-family="sans-serif" font-size="13" lengthAdjust="spacing" textLength="181.5493" x="510.5" y="149.3669">Upload request + metadata</text></g><!--link Movie Service to User Client--><g class="link" data-entity-1="Movie Service" data-entity-2="User Client" data-source-line="21" data-uid="lnk16" id="link_Movie Service_User Client"><path d="M283.06,223.1 C305.82,201.86 342.73,172 381.5,159.57 C417.38,148.06 760.98,132.04 831,161.3 C860.87,173.78 882.2039,197.5054 897.1739,218.1154" fill="none" id="Movie Service-to-User Client" style="stroke:#181818;stroke-width:1;"/><polygon fill="#181818" points="900.7,222.97,898.6472,213.3374,897.7616,218.9245,892.1745,218.0389,900.7,222.97" style="stroke:#181818;stroke-width:1;"/><text fill="#000000" font-family="sans-serif" font-size="13" lengthAdjust="spacing" textLength="121.1323" x="382.5" y="149.3669">Return signed URL</text></g><!--link Movie Service to Authen Service--><g class="link" data-entity-1="Movie Service" data-entity-2="Authen Service" data-source-line="18" data-uid="lnk13" id="link_Movie Service_Authen Service"><path d="M191.06,249.88 C153.25,255.19 109.25,268.7 85,301.59 C66.48,326.71 73.6555,358.8325 82.7455,382.7125" fill="none" id="Movie Service-to-Authen Service" style="stroke:#181818;stroke-width:1;"/><polygon fill="#181818" points="84.88,388.32,85.4166,378.4858,83.1012,383.6471,77.9399,381.3318,84.88,388.32" style="stroke:#181818;stroke-width:1;"/><text fill="#000000" font-family="sans-serif" font-size="13" lengthAdjust="spacing" textLength="116.1113" x="86" y="314.6569">Authenticate user</text></g><!--link Movie Service to OPA Service--><g class="link" data-entity-1="Movie Service" data-entity-2="OPA Service" data-source-line="19" data-uid="lnk14" id="link_Movie Service_OPA Service"><path d="M231.63,269.84 C218.63,282.96 207.08,300.47 212,318.59 C219.04,344.54 231.907,365.8032 244.797,383.5732" fill="none" id="Movie Service-to-OPA Service" style="stroke:#181818;stroke-width:1;"/><polygon fill="#181818" points="248.32,388.43,246.2733,378.7961,245.3842,384.3827,239.7976,383.4935,248.32,388.43" style="stroke:#181818;stroke-width:1;"/><text fill="#000000" font-family="sans-serif" font-size="13" lengthAdjust="spacing" textLength="94.688" x="213" y="314.6569">Authorize user</text></g><!--link Movie Service to Database--><g class="link" data-entity-1="Movie Service" data-entity-2="Database" data-source-line="20" data-uid="lnk15" id="link_Movie Service_Database"><path d="M327.86,270.02 C356.33,278.67 389.98,287.84 421,293.59 C440.96,297.3 495.93,289.18 512,301.59 C538.76,322.26 546.5704,356.8421 549.2104,382.2721" fill="none" id="Movie Service-to-Database" style="stroke:#181818;stroke-width:1;"/><polygon fill="#181818" points="549.83,388.24,552.8793,378.8751,549.3137,383.2667,544.922,379.7011,549.83,388.24" style="stroke:#181818;stroke-width:1;"/><text fill="#000000" font-family="sans-serif" font-size="13" lengthAdjust="spacing" textLength="99.0488" x="528" y="314.6569">Save metadata</text></g><!--link Movie Service to Database--><g class="link" data-entity-1="Movie Service" data-entity-2="Database" data-source-line="26" data-uid="lnk21" id="link_Movie Service_Database"><path d="M282.85,269.92 C299,284.99 321.67,304.57 344,318.59 C393.14,349.45 448.7626,373.2053 491.8426,389.6053" fill="none" id="Movie Service-to-Database-1" style="stroke:#181818;stroke-width:1;"/><polygon fill="#181818" points="497.45,391.74,490.462,384.7997,492.7771,389.9611,487.6158,392.2763,497.45,391.74" style="stroke:#181818;stroke-width:1;"/><text fill="#000000" font-family="sans-serif" font-size="13" lengthAdjust="spacing" textLength="158.2979" x="345" y="314.6569">Update metadata status</text></g><!--link User Client to Storage--><g class="link" data-entity-1="User Client" data-entity-2="Storage" data-source-line="22" data-uid="lnk17" id="link_User Client_Storage"><path d="M884.64,269.81 C841.03,300.9 767.395,353.4062 723.605,384.6362" fill="none" id="User Client-to-Storage" style="stroke:#181818;stroke-width:1;"/><polygon fill="#181818" points="718.72,388.12,728.37,386.1509,722.7908,385.2168,723.7249,379.6376,718.72,388.12" style="stroke:#181818;stroke-width:1;"/><text fill="#000000" font-family="sans-serif" font-size="13" lengthAdjust="spacing" textLength="137.1982" x="837" y="314.6569">Upload raw video file</text></g><!--link Transcode Service to Storage--><g class="link" data-entity-1="Transcode Service" data-entity-2="Storage" data-source-line="23" data-uid="lnk18" id="link_Transcode Service_Storage"><path d="M285.78,106.58 C301.72,115.47 319.92,126 336,136.3 C436.94,200.89 442.87,251.3 555,293.59 C571.92,299.98 621.24,291.14 636,301.59 C664.68,321.9 676.4064,356.6967 681.9564,382.2467" fill="none" id="Transcode Service-to-Storage" style="stroke:#181818;stroke-width:1;"/><polygon fill="#181818" points="683.23,388.11,685.2284,378.466,682.1686,383.2239,677.4107,380.1642,683.23,388.11" style="stroke:#181818;stroke-width:1;"/><text fill="#000000" font-family="sans-serif" font-size="13" lengthAdjust="spacing" textLength="116.6255" x="556" y="251.0069">Download raw file</text></g><!--link Transcode Service to Storage--><g class="link" data-entity-1="Transcode Service" data-entity-2="Storage" data-source-line="24" data-uid="lnk19" id="link_Transcode Service_Storage"><path d="M328.84,87.99 C452.5,94.47 670.18,109.56 694,136.3 C757.88,208.01 719.0618,331.2786 698.7018,382.8886" fill="none" id="Transcode Service-to-Storage-1" style="stroke:#181818;stroke-width:1;"/><polygon fill="#181818" points="696.5,388.47,703.5237,381.5658,698.3349,383.8188,696.0818,378.63,696.5,388.47" style="stroke:#181818;stroke-width:1;"/><text fill="#000000" font-family="sans-serif" font-size="13" lengthAdjust="spacing" textLength="105.6567" x="730" y="251.0069">Upload HLS files</text></g><!--link Transcode Service to Movie Service--><g class="link" data-entity-1="Transcode Service" data-entity-2="Movie Service" data-source-line="25" data-uid="lnk20" id="link_Transcode Service_Movie Service"><path d="M208.99,106.5 C194.29,118.94 181.86,135.48 188,153.3 C197.39,180.55 214.296,201.6589 231.256,218.8489" fill="none" id="Transcode Service-to-Movie Service" style="stroke:#181818;stroke-width:1;"/><polygon fill="#181818" points="235.47,223.12,231.9965,213.904,231.9584,219.5607,226.3016,219.5226,235.47,223.12" style="stroke:#181818;stroke-width:1;"/><text fill="#000000" font-family="sans-serif" font-size="13" lengthAdjust="spacing" textLength="142.124" x="189" y="149.3669">Update status &amp; URLs</text></g><!--SRC=[ZP71JiCm38RlUGfh1oveBx03qiGE78f0AprDEvZ6Z8YIbCJf18Xtf-dIAItTnirn_Dc_VzTOlk6EO5OuiZFu5fiGm6sbIFDM_0XHznKvsKQLvBggUzCeWfZQYitIyolf9F7mk4nUJnQrAurCa45hDZO46Nv65IjaV4ONsFZP4GDrC9_Vm4W9BA2eAuCIB7ruSWpNy4wCikqtLdtWHyhR1eSCgnAPmBS3fy5qmqWPgxxE8SUjsleS6xeWRR3i0jR4tcfmQgT9Gh7EfkpetKgCm3qqIfA15rNHr2t-a2kprqVstrISTvVb7UDEGnCtay5inyZUmLLOpbssC5AzYH7_1G00]--></g></svg>